# AST/ASF file generated using VICON BodyLanguage
# -----------------------------------------------
:version 1.10
:name VICON
:units
  mass 1.0
  length 0.45
  angle deg
:documentation
   .ast/.asf automatically generated from VICON data using
   VICON BodyBuilder and BodyLanguage model FoxedUp or BRILLIANT.MOD
:root
   order TX TY TZ RX RY RZ
   axis XYZ
   position 0 0 0  
   orientation 0 0 0 
:bonedata
  begin
     id 1 
     name lhipjoint
     direction 0.621036 -0.695554 0.361275 
     length 2.46325 
     axis 0 0 0  XYZ
  end
  begin
     id 2 
     name lfemur
     direction 0.34202 -0.939693 0  
     length 6.54784  
     axis 0 0 20  XYZ
    dof rx ry rz
    limits (-160.0 20.0)
           (-70.0 70.0)
           (-60.0 70.0)
  end
  begin
     id 3 
     name ltibia
     direction 0.34202 -0.939693 0   
     length 7.84737   
     axis 0 0 20   XYZ
    dof rx
    limits (-10.0 170.0)
  end
  begin
     id 4 
     name lfoot
     direction 0.0790693 -0.217241 0.97291   
     length 2.59747   
     axis -90 7.62852e-016 20   XYZ
    dof rx rz
    limits (-45.0 90.0)
           (-70.0 20.0)
  end
  begin
     id 5 
     name ltoes
     direction 1.53572e-011 -4.21898e-011 1   
     length 1.29919   
     axis -90 7.62852e-016 20   XYZ
    dof rx
    limits (-90.0 20.0)
  end
  begin
     id 6 
     name rhipjoint
     direction -0.602353 -0.708375 0.367935   
     length 2.41867  
     axis 0 0 0  XYZ 
  end
  begin
     id 7 
     name rfemur
     direction -0.34202 -0.939693 0   
     length 6.92065   
     axis 0 0 -20   XYZ
    dof rx ry rz
    limits (-160.0 20.0)
           (-70.0 70.0)
           (-70.0 60.0)
  end
  begin
     id 8 
     name rtibia
     direction -0.34202 -0.939693 0   
     length 7.88883   
     axis 0 0 -20   XYZ
    dof rx
    limits (-10.0 170.0)
 end
 begin
     id 9 
     name rfoot
     direction -0.0768692 -0.211196 0.974416   
     length 2.43714  
     axis -90 -7.62852e-016 -20   XYZ
    dof rx rz
    limits (-45.0 90.0)
           (-20.0 70.0)
  end
  begin
     id 10 
     name rtoes
     direction -1.53575e-011 -4.21933e-011 1   
     length 1.22113   
     axis -90 -7.62852e-016 -20   XYZ
    dof rx
    limits (-90.0 20.0)
  end
  begin
     id 11 
     name lowerback
     direction 0.0197937 0.98943 -0.143655   
     length 2.16931   
     axis 0 0 0   XYZ
    dof rx ry rz
    limits (-20.0 45.0)
           (-30.0 30.0)
           (-30.0 30.0)
  end
  begin
     id 12 
     name upperback
     direction -0.00183968 0.999975 0.00684288   
     length 2.17221   
     axis 0 0 0   XYZ
    dof rx ry rz
    limits (-20.0 45.0)
           (-30.0 30.0)
           (-30.0 30.0)
  end
  begin
     id 13 
     name thorax
     direction -0.00950244 0.997208 0.0740685   
     length 2.22549   
     axis 0 0 0   XYZ
    dof rx ry rz
    limits (-20.0 45.0)
           (-30.0 30.0)
           (-30.0 30.0)
  end
  begin
     id 14 
     name lowerneck
     direction 0.0218238 0.996215 0.0841425   
     length 1.77269   
     axis 0 0 0   XYZ
    dof rx ry rz
    limits (-20.0 45.0)
           (-30.0 30.0)
           (-30.0 30.0)
  end
  begin
     id 15 
     name upperneck
     direction -0.00430652 0.994214 -0.107332   
     length 1.76534   
     axis 0 0 0   XYZ
    dof rx ry rz
    limits (-20.0 45.0)
           (-30.0 30.0)
           (-30.0 30.0)
  end
  begin
     id 16
     name head
     direction -0.00328946 0.998959 -0.0454998  
     length 1.82634  
     axis 0 0 0   XYZ
    dof rx ry rz
    limits (-20.0 45.0)
           (-30.0 30.0)
           (-30.0 30.0)
  end
  begin
     id 17 
     name lclavicle
     direction 0.970962 0.239191 0.00450212  
     length 3.84872  
     axis 0 0 0   XYZ
    dof ry rz
    limits (-20.0 10.0)
           (0.0 20.0)
  end
  begin
     id 18 
     name lhumerus
     direction 1 -4.48966e-011 5.74696e-028   
     length 5.22771   
     axis 180 -30 -90   XYZ
    dof rx ry rz
    limits (-60.0 90.0)
           (-90.0 90.0)
           (-90.0 90.0)
  end
  begin
     id 19
     name lradius
     direction 1 -4.4896e-011 4.25109e-027   
     length 3.45251   
     axis 180 -30 -90   XYZ
    dof rx
    limits (-10.0 170.0)
  end
  begin
     id 20
     name lwrist
     direction 1 -4.48971e-011 1.15382e-027   
     length 1.72626   
     axis -5.52449e-016 90 90   XYZ
    dof ry
    limits (-180.0 0.0)
 end
  begin
     id 21 
     name lhand
     direction 1 -4.49034e-011 2.30765e-027   
     length 0.552119   
     axis -1.47248e-015 90 90   XYZ
    dof rx rz
    limits (-90.0 90.0)
           (-45.0 45.0)
  end
  begin
     id 22 
     name lfingers
     direction 1 -4.48951e-011 4.61529e-027   
     length 0.445133   
     axis -2.94495e-015 90 90   XYZ
    dof rx
    limits (0.0 90.0)
  end
  begin
     id 23
     name lthumb
     direction 0.707107 -6.34991e-011 0.707107   
     length 0.639124   
     axis -90 45 2.85299e-015   XYZ
    dof rx rz
    limits (-45.0 45.0)
           (-45.0 45.0)
  end
  begin
     id 24 
     name rclavicle
     direction -0.97424 0.222511 -0.0366699   
     length 3.73439  
     axis 0 0 0   XYZ 
    dof ry rz
    limits (-10.0 20.0)
           (-20.0 0.0)
  end
  begin
     id 25 
     name rhumerus
     direction -1 -4.48956e-011 -4.97258e-028  
     length 5.2398   
     axis 180 30 90   XYZ
    dof rx ry rz
    limits (-90.0 60.0)
           (-90.0 90.0)
           (-90.0 90.0)
  end
  begin
     id 26 
     name rradius
     direction -1 -4.4897e-011 -1.72611e-027   
     length 3.48042   
     axis 180 30 90   XYZ
    dof rx
    limits (-10.0 170.0)
  end
  begin
     id 27 
     name rwrist
     direction -1 -4.48976e-011 1.15382e-027   
     length 1.74021   
     axis -5.52449e-016 -90 -90   XYZ
    dof ry
    limits (-180.0 0.0)
  end
  begin
     id 28
     name rhand
     direction -1 -4.48963e-011 2.30765e-027   
     length 0.618713   
     axis -1.47248e-015 -90 -90   XYZ
    dof rx rz
    limits (-90.0 90.0)
           (-45.0 45.0)
  end
  begin
     id 29
     name rfingers
     direction -1 -4.4888e-011 4.61529e-027   
     length 0.498823   
     axis -2.94495e-015 -90 -90   XYZ
    dof rx
    limits (0.0 90.0)
  end
  begin
     id 30
     name rthumb
     direction -0.707107 -6.34968e-011 0.707107   
     length 0.716213   
     axis -90 -45 -2.85299e-015   XYZ
    dof rx rz
    limits (-45.0 45.0)
           (-45.0 45.0)
  end
:hierarchy
  begin
    root lhipjoint rhipjoint lowerback
    lhipjoint lfemur
    lfemur ltibia
    ltibia lfoot
    lfoot ltoes
    rhipjoint rfemur
    rfemur rtibia
    rtibia rfoot
    rfoot rtoes
    lowerback upperback
    upperback thorax
    thorax lowerneck lclavicle rclavicle
    lowerneck upperneck
    upperneck head
    lclavicle lhumerus
    lhumerus lradius
    lradius lwrist
    lwrist lhand lthumb
    lhand lfingers
    rclavicle rhumerus
    rhumerus rradius
    rradius rwrist
    rwrist rhand rthumb
    rhand rfingers
  end

#!OML:ASF G:\JayActor3\Patient Classification 1\Patient 1\Session 5\male.ASF
:FULLY-SPECIFIED
:DEGREES
1
root -36.9816 16.974 -6.42694 165.81 -83.6508 -170.563
lowerback -0.0335162 -1.10989 0.535518
upperback 2.31266 -1.50702 -0.113717
thorax 2.37224 -0.749576 -0.448302
lowerneck -6.5086 0.575349 3.01892
upperneck 2.04084 0.43978 1.40439
head 1.74546 0.270309 -0.0569361
rclavicle 1.51286e-014 -5.36719e-015
rhumerus -34.8468 -3.39022 -87.1263
rradius 28.5532
rwrist 0.635934
rhand -18.2464 -7.5105
rfingers 7.12502
rthumb 8.03255 -37.3379
lclavicle 1.51286e-014 -5.36719e-015
lhumerus -31.0485 2.80903 86.2858
lradius 23.0949
lwrist 15.9051
lhand -17.6251 14.5781
lfingers 7.12502
lthumb 8.63213 44.3816
rfemur -5.78924 9.58089 22.8303
rtibia 34.6084
rfoot -24.0818 -13.8907
rtoes 3.32281
lfemur 2.66437 6.8254 -18.8282
ltibia 22.1776
lfoot -16.5958 6.45153
ltoes -5.46714
2
root -36.9866 16.9832 -6.43631 166.456 -83.6484 -171.224
lowerback -0.215028 -1.09354 0.527469
upperback 2.45689 -1.48772 -0.150692
thorax 2.62232 -0.739201 -0.487337
lowerneck -6.57876 0.582675 3.02082
upperneck 1.89326 0.450633 1.35607
head 1.71023 0.272164 -0.0720573
rclavicle -1.56808e-014 1.88845e-015
rhumerus -34.5299 -3.20792 -87.2601
rradius 28.6523
rwrist 0.55007
rhand -18.3019 -7.55287
rfingers 7.12502
rthumb 7.97895 -37.3823
lclavicle -1.56808e-014 1.88845e-015
lhumerus -30.7651 2.91567 86.2205
lradius 22.9892
lwrist 15.7894
lhand -17.6405 14.5679
lfingers 7.12502
lthumb 8.61728 44.372
rfemur -5.66325 9.46816 22.7661
rtibia 34.453
rfoot -24.0843 -13.7605
rtoes 3.31141
lfemur 2.71327 6.87777 -18.8907
ltibia 22.1423
lfoot -16.4234 6.54489
ltoes -5.56999
3
root -36.9873 16.9927 -6.44727 166.769 -83.6724 -171.492
lowerback -0.221026 -1.08205 0.546047
upperback 2.45762 -1.47208 -0.178384
thorax 2.62545 -0.730621 -0.525879
lowerneck -6.74929 0.584939 3.07354
upperneck 1.98453 0.445104 1.25243
head 1.7711 0.26972 -0.11345
rclavicle 6.63657e-015 2.68359e-015
rhumerus -34.3664 -2.96349 -87.4124
rradius 28.7424
rwrist 0.369947
rhand -18.3837 -7.48638
rfingers 7.12502
rthumb 7.89998 -37.3188
lclavicle 6.63657e-015 2.68359e-015
lhumerus -30.7195 3.00533 86.1404
lradius 22.9938
lwrist 15.6743
lhand -16.9545 15.4757
lfingers 7.12502
lthumb 9.27926 45.2515
rfemur -5.55747 9.32299 22.7498
rtibia 34.3038
rfoot -24.1395 -13.5607
rtoes 3.70587
lfemur 2.66356 6.90826 -18.9067
ltibia 22.1259
lfoot -16.2681 6.62958
ltoes -5.60766
4
root -36.9927 17.0017 -6.46082 166.753 -83.6749 -171.455
lowerback -0.229413 -1.0987 0.551699
upperback 2.38075 -1.49274 -0.179992
thorax 2.55056 -0.740658 -0.530283
lowerneck -6.5113 0.633389 3.05894
upperneck 1.94906 0.521823 1.25688
head 1.71753 0.30683 -0.107222
rclavicle 1.01157e-014 1.59028e-015
rhumerus -34.3908 -2.69954 -87.55
rradius 28.8339
rwrist 0.274967
rhand -18.3204 -7.58296
rfingers 7.12502
rthumb 7.9611 -37.413
lclavicle 1.01157e-014 1.59028e-015
lhumerus -30.8188 3.03839 86.0606
lradius 22.9431
lwrist 15.7034
lhand -17.1381 15.2499
lfingers 7.12502
lthumb 9.10205 45.0335
rfemur -5.45293 9.27243 22.7968
rtibia 34.1444
rfoot -24.1535 -13.4984
rtoes 3.87336
lfemur 2.66928 6.98411 -18.8666
ltibia 22.0956
lfoot -16.102 6.72927
ltoes -5.99929
5
root -36.9967 17.011 -6.47331 167.022 -83.6837 -171.696
lowerback -0.277365 -1.09732 0.544492
upperback 2.36947 -1.49035 -0.192866
thorax 2.56581 -0.739249 -0.540292
lowerneck -6.49607 0.653182 3.06196
upperneck 1.97027 0.550046 1.22115
head 1.72215 0.320578 -0.117975
rclavicle 2.59468e-015 7.95139e-016
rhumerus -34.2915 -2.47409 -87.6724
rradius 28.9287
rwrist 0.164311
rhand -18.325 -7.60613
rfingers 7.12502
rthumb 7.95665 -37.4364
lclavicle 2.59468e-015 7.95139e-016
lhumerus -30.7957 3.11415 85.9868
lradius 22.9013
lwrist 15.6479
lhand -17.1384 15.26
lfingers 7.12502
lthumb 9.10179 45.0436
rfemur -5.34655 9.18636 22.7984
rtibia 34.0008
rfoot -24.2026 -13.3593
rtoes 4.14093
lfemur 2.66263 7.03633 -18.8721
ltibia 22.0622
lfoot -15.9515 6.8332
ltoes -6.17607
6
root -37.0005 17.0201 -6.48608 167.281 -83.6916 -171.919
lowerback -0.327068 -1.09505 0.532275
upperback 2.3499 -1.48662 -0.20092
thorax 2.57377 -0.737324 -0.542444
lowerneck -6.49369 0.671222 3.06014
upperneck 2.02201 0.57516 1.19086
head 1.73894 0.333429 -0.126273
rclavicle -1.91097e-014 1.98785e-015
rhumerus -34.2046 -2.26363 -87.7796
rradius 29.0277
rwrist 0.0624142
rhand -18.3235 -7.61782
rfingers 7.12502
rthumb 7.95814 -37.448
lclavicle -1.91097e-014 1.98785e-015
lhumerus -30.7808 3.18854 85.9178
lradius 22.8634
lwrist 15.5947
lhand -17.2104 15.1637
lfingers 7.12502
lthumb 9.03236 44.9503
rfemur -5.24269 9.11127 22.8027
rtibia 33.8394
rfoot -24.2369 -13.2322
rtoes 4.41751
lfemur 2.65529 7.07784 -18.8807
ltibia 22.0105
lfoot -15.8079 6.9574
ltoes -6.32767
7
root -37.0045 17.0287 -6.49894 167.567 -83.6974 -172.164
lowerback -0.38248 -1.09062 0.514924
upperback 2.32723 -1.47991 -0.206981
thorax 2.58197 -0.734013 -0.539682
lowerneck -6.49748 0.686443 3.05686
upperneck 2.09314 0.596115 1.1614
head 1.76312 0.344558 -0.134177
rclavicle 6.03343e-015 4.37326e-015
rhumerus -34.1274 -2.07626 -87.8716
rradius 29.1315
rwrist -0.0310758
rhand -18.32 -7.63653
rfingers 7.12502
rthumb 7.96145 -37.4666
lclavicle 6.03343e-015 4.37326e-015
lhumerus -30.7667 3.25026 85.8567
lradius 22.8266
lwrist 15.556
lhand -17.3399 14.9729
lfingers 7.12502
lthumb 8.90733 44.7649
rfemur -5.1565 9.05154 22.8041
rtibia 33.6869
rfoot -24.2594 -13.1226
rtoes 4.66119
lfemur 2.65292 7.10604 -18.8984
ltibia 21.9441
lfoot -15.6776 7.10492
ltoes -6.44705
8
root -37.0084 17.0366 -6.5117 167.872 -83.7018 -172.425
lowerback -0.43976 -1.08372 0.496136
upperback 2.30089 -1.4698 -0.212437
thorax 2.58755 -0.729038 -0.535388
lowerneck -6.50854 0.699609 3.05378
upperneck 2.18192 0.613858 1.13081
head 1.79437 0.354364 -0.142557
rclavicle 8.49377e-015 -1.98785e-015
rhumerus -34.0615 -1.91273 -87.9495
rradius 29.2407
rwrist -0.124195
rhand -18.3273 -7.63539
rfingers 7.12502
rthumb 7.95447 -37.4657
lclavicle 8.49377e-015 -1.98785e-015
lhumerus -30.7602 3.30174 85.8028
lradius 22.7987
lwrist 15.5188
lhand -17.4426 14.8005
lfingers 7.12502
lthumb 8.80825 44.5967
rfemur -5.08048 9.00176 22.802
rtibia 33.5288
rfoot -24.2742 -12.985
rtoes 4.88967
lfemur 2.65421 7.11638 -18.9259
ltibia 21.8655
lfoot -15.5682 7.27494
ltoes -6.49518
9
root -37.0125 17.0435 -6.52418 168.174 -83.7055 -172.686
lowerback -0.493105 -1.07612 0.479306
upperback 2.2713 -1.45873 -0.217704
thorax 2.58752 -0.723555 -0.531827
lowerneck -6.51628 0.714405 3.05377
upperneck 2.28043 0.633588 1.09949
head 1.82829 0.365296 -0.151617
rclavicle -8.94065e-015 -9.93923e-016
rhumerus -34.0061 -1.7712 -88.0164
rradius 29.3495
rwrist -0.214205
rhand -18.3403 -7.63758
rfingers 7.12502
rthumb 7.94191 -37.4684
lclavicle -8.94065e-015 -9.93923e-016
lhumerus -30.7636 3.32492 85.76
lradius 22.7837
lwrist 15.5064
lhand -17.4946 14.683
lfingers 7.12502
lthumb 8.7581 44.4813
rfemur -5.0112 8.96267 22.7986
rtibia 33.3679
rfoot -24.2729 -12.8297
rtoes 5.09702
lfemur 2.66965 7.11364 -18.9598
ltibia 21.7714
lfoot -15.4798 7.46493
ltoes -6.49193
10
root -37.0171 17.0491 -6.53626 168.496 -83.7093 -172.975
lowerback -0.552609 -1.06888 0.462051
upperback 2.24685 -1.44821 -0.223864
thorax 2.59623 -0.718333 -0.529151
lowerneck -6.52049 0.729952 3.05216
upperneck 2.37967 0.654405 1.07258
head 1.86185 0.37682 -0.158983
rclavicle -2.40258e-014 3.97569e-015
rhumerus -33.9509 -1.64656 -88.0751
rradius 29.4541
rwrist -0.306099
rhand -18.3553 -7.64632
rfingers 7.12502
rthumb 7.92743 -37.4777
lclavicle -2.40258e-014 3.97569e-015
lhumerus -30.7704 3.32384 85.7284
lradius 22.7817
lwrist 15.5161
lhand -17.4912 14.6343
lfingers 7.12502
lthumb 8.76133 44.4324
rfemur -4.94428 8.92456 22.7891
rtibia 33.2114
rfoot -24.2636 -12.6495
rtoes 5.28495
lfemur 2.70872 7.0987 -19.0029
ltibia 21.6585
lfoot -15.4155 7.67108
ltoes -6.43615
11
root -37.0218 17.0537 -6.54791 168.821 -83.7145 -173.271
lowerback -0.609869 -1.06293 0.446198
upperback 2.22235 -1.43943 -0.230313
thorax 2.60356 -0.713959 -0.527542
lowerneck -6.51511 0.747965 3.05104
upperneck 2.47728 0.678719 1.04941
head 1.8932 0.39009 -0.165143
rclavicle -2.21893e-014 -4.67144e-015
rhumerus -33.9014 -1.53645 -88.1263
rradius 29.554
rwrist -0.396864
rhand -18.3692 -7.65541
rfingers 7.12502
rthumb 7.91401 -37.4873
lclavicle -2.21893e-014 -4.67144e-015
lhumerus -30.791 3.30816 85.7038
lradius 22.8005
lwrist 15.5358
lhand -17.3694 14.7509
lfingers 7.12502
lthumb 8.87891 44.544
rfemur -4.87659 8.88049 22.7762
rtibia 33.0647
rfoot -24.2586 -12.4475
rtoes 5.48292
lfemur 2.76743 7.07646 -19.0511
ltibia 21.5253
lfoot -15.3728 7.88651
ltoes -6.333
12
root -37.0264 17.0573 -6.55903 169.135 -83.7187 -173.558
lowerback -0.67153 -1.05695 0.434195
upperback 2.20281 -1.43078 -0.235761
thorax 2.61841 -0.709577 -0.527217
lowerneck -6.52462 0.762991 3.04861
upperneck 2.57997 0.698243 1.03076
head 1.92888 0.401143 -0.16979
rclavicle 3.21643e-014 -1.98785e-015
rhumerus -33.8429 -1.43859 -88.1703
rradius 29.6458
rwrist -0.487295
rhand -18.3882 -7.6678
rfingers 7.12502
rthumb 7.89568 -37.5004
lclavicle 3.21643e-014 -1.98785e-015
lhumerus -30.8104 3.27846 85.6873
lradius 22.8408
lwrist 15.5656
lhand -17.2038 14.95
lfingers 7.12502
lthumb 9.03871 44.7363
rfemur -4.81757 8.83451 22.762
rtibia 32.9338
rfoot -24.2534 -12.2635
rtoes 5.67237
lfemur 2.84278 7.04552 -19.1022
ltibia 21.3676
lfoot -15.3528 8.10952
ltoes -6.1683
13
root -37.031 17.0601 -6.57022 169.293 -83.7119 -173.688
lowerback -0.745527 -1.04867 0.43552
upperback 2.19305 -1.41972 -0.232472
thorax 2.65021 -0.703775 -0.525704
lowerneck -6.54979 0.777408 3.04592
upperneck 2.68068 0.716559 1.00824
head 1.9668 0.41147 -0.175619
rclavicle 3.10314e-014 6.95746e-016
rhumerus -33.7677 -1.34574 -88.2075
rradius 29.7272
rwrist -0.579365
rhand -18.4092 -7.68732
rfingers 7.12502
rthumb 7.87536 -37.5206
lclavicle 3.10314e-014 6.95746e-016
lhumerus -30.8214 3.23996 85.681
lradius 22.8983
lwrist 15.6042
lhand -17.0042 15.2169
lfingers 7.12502
lthumb 9.23125 44.9948
rfemur -4.76852 8.7984 22.7706
rtibia 32.8202
rfoot -24.2498 -12.1193
rtoes 5.85077
lfemur 2.93433 7.00982 -19.1331
ltibia 21.1852
lfoot -15.3566 8.33558
ltoes -5.95074
14
root -37.035 17.0622 -6.58066 169.38 -83.7052 -173.737
lowerback -0.822479 -1.04163 0.447974
upperback 2.1824 -1.41065 -0.224493
thorax 2.68259 -0.698772 -0.525699
lowerneck -6.57829 0.791394 3.04453
upperneck 2.77892 0.734318 0.981632
head 2.00461 0.421368 -0.182973
rclavicle 5.1552e-015 -4.96962e-016
rhumerus -33.6913 -1.2629 -88.2341
rradius 29.8066
rwrist -0.661135
rhand -18.4235 -7.69546
rfingers 7.12502
rthumb 7.86158 -37.5293
lclavicle 5.1552e-015 -4.96962e-016
lhumerus -30.8356 3.19874 85.6826
lradius 22.9724
lwrist 15.641
lhand -16.7919 15.5025
lfingers 7.12502
lthumb 9.43612 45.2713
rfemur -4.74087 8.74088 22.7803
rtibia 32.7233
rfoot -24.2336 -12.003
rtoes 5.99811
lfemur 3.03114 6.95581 -19.1606
ltibia 20.9767
lfoot -15.3782 8.56958
ltoes -5.7064
15
root -37.0386 17.0636 -6.59066 169.321 -83.6971 -173.632
lowerback -0.903683 -1.03728 0.475895
upperback 2.16844 -1.40569 -0.20916
thorax 2.71375 -0.695554 -0.526962
lowerneck -6.59789 0.805629 3.0458
upperneck 2.87127 0.75293 0.949753
head 2.03898 0.431442 -0.192436
rclavicle -1.11389e-014 -1.39149e-015
rhumerus -33.6197 -1.17926 -88.2558
rradius 29.8833
rwrist -0.735291
rhand -18.4261 -7.71583
rfingers 7.12502
rthumb 7.85912 -37.5497
lclavicle -1.11389e-014 -1.39149e-015
lhumerus -30.8575 3.15103 85.6897
lradius 23.0611
lwrist 15.6917
lhand -16.6627 15.6745
lfingers 7.12502
lthumb 9.56083 45.4376
rfemur -4.73041 8.67346 22.8041
rtibia 32.6395
rfoot -24.2059 -11.9272
rtoes 6.11441
lfemur 3.13458 6.87991 -19.1737
ltibia 20.742
lfoot -15.4139 8.81116
ltoes -5.47141
